Simulation
nRows=40
nColumns=15
endheader
time  TH_x TH_y TH_z SC_y  SC_z  SC_x  AC_y  AC_z  AC_x  GH_y  GH_z  GH_yy  EL_x  PS_y
2.681  0.000000  0.000000  0.000000  -23.682305745652002  8.286222458308789  -0.11006023508560794  48.947014065421236  6.670458352009178  1.2936998496728462  -4.3158504858047575  5.293997421179459  40.9495184378985  15.892215798288396  120.000000
2.73462  0.000000  0.000000  0.000000  -23.055403580245876  7.782328106257595  -0.6005635036908594  49.23518725100562  7.080965863231696  1.463615917953243  0.5052816926189321  3.7496427193725563  39.0627945917638  16.956206399823454  120.000000
2.78824  0.000000  0.000000  0.000000  -22.80988226048685  7.382266345202934  -0.9135647299478024  49.51844091244491  7.595096359458864  1.608745584083271  13.963306551297222  2.5689250767437994  27.77583482645788  17.81803670437391  120.000000
2.84186  0.000000  0.000000  0.000000  -22.855639518341686  7.0772119785727945  -1.0870167467493264  49.76982439236479  8.17530126015135  1.7205184095536845  40.594358631946804  1.9582357517621771  2.6314756367195438  18.43780130877543  120.000000
2.89548  0.000000  0.000000  0.000000  -23.074624998080733  6.847430671285265  -1.1592649244063609  49.98211094319297  8.781192974689562  1.8010171109877355  69.15165834595511  2.0326992907941177  -24.98904953561917  18.809666825007085  120.000000
2.9491  0.000000  0.000000  0.000000  -23.35479093778391  6.669398418524587  -1.1650361989447022  50.16287642186498  9.374198177346436  1.8572070161910146  85.39864848935234  2.4309095627782313  -40.704704800806915  18.953433346046157  120.000000
3.00272  0.000000  0.000000  0.000000  -23.61357016585936  6.521816401740567  -1.135101105037021  50.32581742978632  9.922186882620984  1.8973985709885837  92.31583028353779  2.8133963419867993  -47.37201349385038  18.912403832921672  120.000000
3.05634  0.000000  0.000000  0.000000  -23.80464633648757  6.388593376638522  -1.0971052445701044  50.48347956007848  10.40264971531784  1.9304544010668199  94.2407198236957  3.076669793011002  -49.23516483488379  18.74747042818288  120.000000
3.10996  0.000000  0.000000  0.000000  -23.910925505227155  6.259832062716453  -1.0742576895448828  50.64409779036321  10.802037841922392  1.9645055276304417  93.17494923060266  3.229150470155669  -48.228565887041526  18.5243543728407  120.000000
3.16358  0.000000  0.000000  0.000000  -23.933541419259004  6.130854443438525  -1.0864948988941687  50.8102175110884  11.116207990248268  2.008309655756382  90.06338282175072  3.3178987218839238  -45.248078184159645  18.29772285663799  120.000000
3.2172  0.000000  0.000000  0.000000  -23.883569705125954  6.001124685964208  -1.1472238868940705  50.97916305585418  11.347369523916525  2.0690403550706673  85.56274182682337  3.3963067792173214  -40.91544951523182  18.09884800857749  120.000000
3.27082  0.000000  0.000000  0.000000  -23.776302573378114  5.873206382034969  -1.259866519695999  51.14501440480636  11.500469846827054  2.1493053253624472  80.31650901838617  3.5074310152432044  -35.85065318689004  17.933318059209284  120.000000
3.32444  0.000000  0.000000  0.000000  -23.62682278268237  5.752814005192661  -1.4215308112099425  51.30066134415489  11.584400076639676  2.2491182028728076  74.94828105969142  3.6780183615629154  -30.663427318053593  17.79043286696431  120.000000
3.37806  0.000000  0.000000  0.000000  -23.447173753743673  5.647323283814329  -1.6267122276362185  51.43971838105773  11.611019502973889  2.366597171389674  69.93854587439402  3.919779217325886  -25.827627433891017  17.655711107691896  120.000000
3.43168  0.000000  0.000000  0.000000  -23.245782670244914  5.5627643207414765  -1.8700940770856787  51.55577925548925  11.591956299216566  2.4984883683508414  65.54408410176755  4.233388540443699  -21.598214319745164  17.520239584544868  120.000000
3.4853  0.000000  0.000000  0.000000  -23.027195492522306  5.501344118055705  -2.1480372531745635  51.641461232709645  11.535616377039977  2.641112357923345  61.80652438225341  4.612995538242409  -18.01677193639478  17.383949352598506  120.000000
3.53892  0.000000  0.000000  0.000000  -22.791842816976327  5.460643813353138  -2.458984385024695  51.68883040070344  11.445872651229223  2.7905677131047546  58.621576736588835  5.050260484180191  -14.978472527690883  17.25288010131604  120.000000
3.59254  0.000000  0.000000  0.000000  -22.53535001201266  5.434321763333104  -2.803316032831108  51.6915018723795  11.322793930414061  2.942454655827309  55.80878273531706  5.537250804931474  -12.299787035891566  17.13255509565609  120.000000
3.64616  0.000000  0.000000  0.000000  -22.24844414641484  5.4136157144404065  -3.1828263975924243  51.64666273099302  11.164836648191294  3.0920250126651303  53.16094403343282  6.06881613260341  -9.767362101715776  17.021141356933025  120.000000
3.69978  0.000000  0.000000  0.000000  -21.91808612966532  5.388716739965024  -3.6001614994346394  51.556533114577405  10.971571720673644  3.234481673709682  50.47729318149853  6.6453557638560765  -7.172716611822736  16.905754983282304  120.000000
3.7534  0.000000  0.000000  0.000000  -21.53180509479559  5.349126662119525  -4.05766046776603  51.426758712593326  10.74555814334523  3.3656699006449933  47.59155389774766  7.275570323518845  -4.345716758930828  16.764114557866318  120.000000
3.80702  0.000000  0.000000  0.000000  -21.084499230072392  5.28410366741919  -4.556427589391595  51.26370263652892  10.492992070671733  3.482559585561001  44.40274328934097  7.979346276594708  -1.1932987764161374  16.569700062037395  120.000000
3.86064  0.000000  0.000000  0.000000  -20.585130345144034  5.183736494615981  -5.096455723615578  51.07270548063524  10.223596118565672  3.5828583092424853  40.90726498187259  8.78998304917078  2.25986284699089  16.29758011188539  120.000000
3.91426  0.000000  0.000000  0.000000  -20.059695783760496  5.040153118049149  -5.677084013953693  50.858541094673406  9.950548744673407  3.6648826077265744  37.20563518898002  9.75338283089538  5.861076415719699  15.928484074495875  120.000000
3.96788  0.000000  0.000000  0.000000  -19.547556212879783  4.8490573637797425  -6.296739613255034  50.627302984254406  9.69108844272977  3.7292012686515443  33.46453876220023  10.922764724123075  9.373271602744286  15.451153356102223  120.000000
4.0215  0.000000  0.000000  0.000000  -19.092982707986458  4.610456555478621  -6.951289629758619  50.38898627297133  9.468668381640878  3.780867085556088  29.845744944687503  12.352403340993122  12.560447950666978  14.86608485270768  120.000000
4.07512  0.000000  0.000000  0.000000  -18.73631165723169  4.329113730453446  -7.6320308977781695  50.15918771463958  9.314136418815284  3.8306368136108837  26.447893487673383  14.092965821039071  15.263422970209277  14.193976081593854  120.000000
4.1287400000000005  0.000000  0.000000  0.000000  -18.508472815903723  4.014342616200839  -8.325673894684508  49.9602931202717  9.26390618196996  3.8933263407752907  23.29476361547759  16.188386346997884  17.42461729380988  13.483514291064859  120.000000
4.18236  0.000000  0.000000  0.000000  -18.431487190471728  3.6780088391314933  -9.01450178849537  49.81858898393509  9.355077188039623  3.986061652524647  20.365379062863223  18.672274276691322  19.05701437590777  12.80673181389253  120.000000
4.23598  0.000000  0.000000  0.000000  -18.52089574461417  3.333539547313867  -9.676487010383445  49.762989998104665  9.619711232941336  4.1240944320913435  17.638436185000405  21.562364120666278  20.187684332522778  12.239512465310272  120.000000
4.2896  0.000000  0.000000  0.000000  -18.784183554438375  2.9944695665257877  -10.281688027185119  49.82275029868767  10.077759613949308  4.315400905985965  15.109342605293435  24.8486813098446  20.82628663960696  11.833505107708907  120.000000
4.3432200000000005  0.000000  0.000000  0.000000  -19.213948997256544  2.6751882174944  -10.787997834331483  50.02387197044264  10.733767568610494  4.556693484482167  12.778640608550983  28.47885060922662  20.968053132125373  11.593248514036983  120.000000
4.39684  0.000000  0.000000  0.000000  -19.77566019556393  2.3938515745989486  -11.146914744119279  50.38756744604662  11.586744368016976  4.834823389587996  10.637002825544114  32.351396657361164  20.611273096984842  11.475210197967908  120.000000
4.45046  0.000000  0.000000  0.000000  -20.407706992385766  2.1618949401631005  -11.310270331051266  50.912804955839285  12.634718297195356  5.142217234730267  8.650079965184373  36.317467834106246  19.785763708558274  11.409539823156585  120.000000
4.50408  0.000000  0.000000  0.000000  -21.032833951543942  1.985310491628221  -11.2437747642221  51.575578347914515  13.870229313497338  5.4742492769700775  6.766523012663292  40.20088771214991  18.564673315063747  11.331297934539872  120.000000
4.5577000000000005  0.000000  0.000000  0.000000  -21.576797924909656  1.879749814999508  -10.92989982443761  52.34027685627066  15.268353709034765  5.814942121850958  4.940564194227898  43.83953832018249  17.059462257235797  11.204088004339392  120.000000
4.61132  0.000000  0.000000  0.000000  -21.992749326713195  1.8620070239974085  -10.351011023144537  53.15334735850259  16.76998960177768  6.150621434814509  3.1471736306900557  47.11991881504669  15.412750595426974  11.027852826536101  120.000000
4.66494  0.000000  0.000000  0.000000  -22.26676139123353  1.94490013420984  -9.486518011161719  53.95350232973067  18.282887865544904  6.47746871238387  1.3935629276100503  49.99015967612913  13.776142806139063  10.8293597191827  120.000000
4.71856  0.000000  0.000000  0.000000  -22.416464003282176  2.138198442013047  -8.318155283552626  54.68518748378807  19.698854009176394  6.797916571958905  -0.2853930543045106  52.45704012343175  12.285430901364597  10.645801478330474  120.000000
4.7721800000000005  0.000000  0.000000  0.000000  -22.487704913579165  2.44300375367876  -6.837777421254461  55.303444861827316  20.91554331580689  7.121675033990057  -1.844380618854389  54.567941583888086  11.03971436304436  10.510181947107307  120.000000
